<svg width="376" height="220" viewBox="0 0 376 220" fill="none" xmlns="http://www.w3.org/2000/svg">
<rect y="12" width="12" height="12" transform="rotate(-90 0 12)" fill="#E2E2E2"/>
<rect x="52" y="12" width="12" height="12" transform="rotate(-90 52 12)" fill="#E2E2E2"/>
<rect x="104" y="12" width="12" height="12" transform="rotate(-90 104 12)" fill="#E2E2E2"/>
<rect x="156" y="12" width="12" height="12" transform="rotate(-90 156 12)" fill="#E2E2E2"/>
<rect x="208" y="12" width="12" height="12" transform="rotate(-90 208 12)" fill="#E2E2E2"/>
<rect x="260" y="12" width="12" height="12" transform="rotate(-90 260 12)" fill="#E2E2E2"/>
<rect x="312" y="12" width="12" height="12" transform="rotate(-90 312 12)" fill="#E2E2E2"/>
<rect x="364" y="12" width="12" height="12" transform="rotate(-90 364 12)" fill="#E2E2E2"/>
<rect y="64" width="12" height="12" transform="rotate(-90 0 64)" fill="#E2E2E2"/>
<rect x="52" y="64" width="12" height="12" transform="rotate(-90 52 64)" fill="#E2E2E2"/>
<rect x="104" y="64" width="12" height="12" transform="rotate(-90 104 64)" fill="#E2E2E2"/>
<rect x="156" y="64" width="12" height="12" transform="rotate(-90 156 64)" fill="#E2E2E2"/>
<rect x="208" y="64" width="12" height="12" transform="rotate(-90 208 64)" fill="#E2E2E2"/>
<rect x="260" y="64" width="12" height="12" transform="rotate(-90 260 64)" fill="#E2E2E2"/>
<rect x="312" y="64" width="12" height="12" transform="rotate(-90 312 64)" fill="#E2E2E2"/>
<rect x="364" y="64" width="12" height="12" transform="rotate(-90 364 64)" fill="#E2E2E2"/>
<rect y="116" width="12" height="12" transform="rotate(-90 0 116)" fill="#E2E2E2"/>
<rect x="52" y="116" width="12" height="12" transform="rotate(-90 52 116)" fill="#E2E2E2"/>
<rect x="104" y="116" width="12" height="12" transform="rotate(-90 104 116)" fill="#E2E2E2"/>
<rect x="156" y="116" width="12" height="12" transform="rotate(-90 156 116)" fill="#E2E2E2"/>
<rect x="208" y="116" width="12" height="12" transform="rotate(-90 208 116)" fill="#E2E2E2"/>
<rect x="260" y="116" width="12" height="12" transform="rotate(-90 260 116)" fill="#E2E2E2"/>
<rect x="312" y="116" width="12" height="12" transform="rotate(-90 312 116)" fill="#E2E2E2"/>
<rect x="364" y="116" width="12" height="12" transform="rotate(-90 364 116)" fill="#E2E2E2"/>
<rect y="168" width="12" height="12" transform="rotate(-90 0 168)" fill="#E2E2E2"/>
<rect x="52" y="168" width="12" height="12" transform="rotate(-90 52 168)" fill="#E2E2E2"/>
<rect x="104" y="168" width="12" height="12" transform="rotate(-90 104 168)" fill="#E2E2E2"/>
<rect x="156" y="168" width="12" height="12" transform="rotate(-90 156 168)" fill="#E2E2E2"/>
<rect x="208" y="168" width="12" height="12" transform="rotate(-90 208 168)" fill="#E2E2E2"/>
<rect x="260" y="168" width="12" height="12" transform="rotate(-90 260 168)" fill="#E2E2E2"/>
<rect x="312" y="168" width="12" height="12" transform="rotate(-90 312 168)" fill="#E2E2E2"/>
<rect x="364" y="168" width="12" height="12" transform="rotate(-90 364 168)" fill="#E2E2E2"/>
<rect y="220" width="12" height="12" transform="rotate(-90 0 220)" fill="#E2E2E2"/>
<rect x="52" y="220" width="12" height="12" transform="rotate(-90 52 220)" fill="#E2E2E2"/>
<rect x="104" y="220" width="12" height="12" transform="rotate(-90 104 220)" fill="#E2E2E2"/>
<rect x="156" y="220" width="12" height="12" transform="rotate(-90 156 220)" fill="#E2E2E2"/>
<rect x="208" y="220" width="12" height="12" transform="rotate(-90 208 220)" fill="#E2E2E2"/>
<rect x="260" y="220" width="12" height="12" transform="rotate(-90 260 220)" fill="#E2E2E2"/>
<rect x="312" y="220" width="12" height="12" transform="rotate(-90 312 220)" fill="#E2E2E2"/>
<rect x="364" y="220" width="12" height="12" transform="rotate(-90 364 220)" fill="#E2E2E2"/>
</svg>
