<svg width="45" height="45" viewBox="0 0 45 45" fill="none" xmlns="http://www.w3.org/2000/svg">
<rect width="58.8814" height="4.68279" transform="matrix(0.707105 -0.707109 0.707105 0.707109 0 41.6885)" fill="#5EDC3B"/>
<path d="M7.75912 34.1858C6.27375 32.3653 5.11952 30.3411 4.29645 28.113C3.47382 25.8849 3.0625 23.504 3.0625 20.9701C3.0625 15.1159 5.09397 10.1574 9.1569 6.09443C13.2198 2.03148 18.1784 0 24.0325 0H45.0024V20.9701C45.0024 26.8242 42.971 31.7828 38.908 35.8457C34.8451 39.9087 29.8866 41.9401 24.0325 41.9401C21.4986 41.9401 19.1213 41.5288 16.9007 40.7062C14.6796 39.8836 12.6591 38.7295 10.8391 37.2442C6.09873 32.5038 12.1933 38.6201 7.75912 34.1858ZM14.3339 30.6687C14.7563 31.1205 15.2659 31.3426 15.8627 31.3352C16.4599 31.3278 16.9769 31.1056 17.4138 30.6687L27.8772 20.206C28.3141 19.7691 28.5325 19.2558 28.5325 18.666C28.5325 18.0762 28.3141 17.5629 27.8772 17.126C27.484 16.7328 26.9816 16.5362 26.37 16.5362C25.7583 16.5362 25.2559 16.7328 24.8627 17.126L14.3339 27.6543C13.9407 28.0475 13.7441 28.5464 13.7441 29.151C13.7441 29.7552 13.9407 30.2611 14.3339 30.6687Z" fill="#5EDC3B"/>
<rect width="32.6446" height="3.46192" transform="matrix(0.707105 -0.707109 0.707105 0.707109 12.5508 30.0072)" fill="white"/>
</svg>
