<svg width="168" height="532" viewBox="0 0 168 532" fill="none" xmlns="http://www.w3.org/2000/svg">
<rect y="12" width="12" height="12" transform="rotate(-90 0 12)" fill="#343434"/>
<rect x="52" y="12" width="12" height="12" transform="rotate(-90 52 12)" fill="#343434"/>
<rect x="104" y="12" width="12" height="12" transform="rotate(-90 104 12)" fill="#343434"/>
<rect x="156" y="12" width="12" height="12" transform="rotate(-90 156 12)" fill="#343434"/>
<rect x="104" y="64" width="12" height="12" transform="rotate(-90 104 64)" fill="#343434"/>
<rect x="156" y="64" width="12" height="12" transform="rotate(-90 156 64)" fill="#343434"/>
<rect x="52" y="116" width="12" height="12" transform="rotate(-90 52 116)" fill="#343434"/>
<rect x="104" y="116" width="12" height="12" transform="rotate(-90 104 116)" fill="#343434"/>
<rect x="156" y="116" width="12" height="12" transform="rotate(-90 156 116)" fill="#343434"/>
<rect x="156" y="168" width="12" height="12" transform="rotate(-90 156 168)" fill="#343434"/>
<rect x="104" y="220" width="12" height="12" transform="rotate(-90 104 220)" fill="#343434"/>
<rect x="156" y="220" width="12" height="12" transform="rotate(-90 156 220)" fill="#343434"/>
<rect x="156" y="272" width="12" height="12" transform="rotate(-90 156 272)" fill="#343434"/>
<rect x="104" y="324" width="12" height="12" transform="rotate(-90 104 324)" fill="#343434"/>
<rect x="156" y="324" width="12" height="12" transform="rotate(-90 156 324)" fill="#343434"/>
<rect x="156" y="376" width="12" height="12" transform="rotate(-90 156 376)" fill="#343434"/>
<rect x="52" y="428" width="12" height="12" transform="rotate(-90 52 428)" fill="#343434"/>
<rect x="104" y="428" width="12" height="12" transform="rotate(-90 104 428)" fill="#343434"/>
<rect x="156" y="428" width="12" height="12" transform="rotate(-90 156 428)" fill="#343434"/>
<rect x="104" y="480" width="12" height="12" transform="rotate(-90 104 480)" fill="#343434"/>
<rect x="156" y="480" width="12" height="12" transform="rotate(-90 156 480)" fill="#343434"/>
<rect y="532" width="12" height="12" transform="rotate(-90 0 532)" fill="#343434"/>
<rect x="52" y="532" width="12" height="12" transform="rotate(-90 52 532)" fill="#343434"/>
<rect x="104" y="532" width="12" height="12" transform="rotate(-90 104 532)" fill="#343434"/>
<rect x="156" y="532" width="12" height="12" transform="rotate(-90 156 532)" fill="#343434"/>
</svg>
