<svg width="157" height="90" viewBox="0 0 157 90" fill="none" xmlns="http://www.w3.org/2000/svg">
<rect x="0.5" y="90" width="10" height="10" transform="rotate(-90 0.5 90)" fill="#E2E2E2"/>
<rect x="36.5" y="90" width="10" height="11" transform="rotate(-90 36.5 90)" fill="#E2E2E2"/>
<rect x="36.5" y="54" width="11" height="11" transform="rotate(-90 36.5 54)" fill="#E2E2E2"/>
<rect x="73.5" y="90" width="10" height="10" transform="rotate(-90 73.5 90)" fill="#E2E2E2"/>
<rect x="109.5" y="90" width="10" height="10" transform="rotate(-90 109.5 90)" fill="#E2E2E2"/>
<rect x="109.5" y="54" width="11" height="10" transform="rotate(-90 109.5 54)" fill="#E2E2E2"/>
<rect x="102.5" y="25" width="25" height="24" transform="rotate(-90 102.5 25)" fill="#5EDC3B"/>
<rect x="73.5" y="54" width="11" height="10" transform="rotate(-90 73.5 54)" fill="#E2E2E2"/>
<rect x="145.5" y="90" width="10" height="11" transform="rotate(-90 145.5 90)" fill="#E2E2E2"/>
<rect x="145.5" y="54" width="11" height="11" transform="rotate(-90 145.5 54)" fill="#E2E2E2"/>
</svg>
