<svg width="86" height="85" viewBox="0 0 86 85" fill="none" xmlns="http://www.w3.org/2000/svg">
<path d="M47.8892 30.75H46.9727V33.4971H47.9126C48.7746 33.4971 49.081 33.1469 49.081 32.1897V31.9718C49.081 31.0457 48.7538 30.75 47.8918 30.75H47.8892Z" fill="black"/>
<path d="M55.1665 30.75H54.25V33.4971H55.1899C56.0519 33.4971 56.3583 33.1469 56.3583 32.1897V31.9718C56.3583 31.0457 56.0312 30.75 55.1691 30.75H55.1665Z" fill="black"/>
<path d="M33.741 43.7466V43.5287C33.741 42.6882 33.3905 42.46 32.5181 42.46H31.6016V44.8802H32.5415C33.4139 44.8802 33.741 44.5637 33.741 43.7466Z" fill="black"/>
<path d="M70.4285 32.0366V31.8187C70.4285 30.9783 70.078 30.75 69.2056 30.75H68.2891V33.1702H69.229C70.1014 33.1702 70.4285 32.8538 70.4285 32.0366Z" fill="black"/>
<path d="M40.3322 30.9575L40.0259 32.2986L39.3066 34.6333H41.2696L40.5841 32.2986L40.3322 30.9575Z" fill="black"/>
<path d="M15.1582 0V69.8973H85.1194V0H15.1582ZM24.9909 33.8708C23.7576 33.5881 23.0696 33.1393 23.0696 31.6892C23.0696 30.3273 23.8771 29.5621 25.3934 29.5621C26.2892 29.5621 26.8344 29.7151 27.2914 29.9097L27.1278 30.9447C26.5592 30.7709 26.2009 30.6723 25.5024 30.6723C24.6742 30.6723 24.3444 30.8902 24.3444 31.5336C24.3444 32.1769 24.5288 32.3403 25.5777 32.5816C26.8448 32.8747 27.6081 33.3131 27.6081 34.7295C27.6081 36.1458 26.8448 36.9422 25.1857 36.9422C24.1263 36.9422 23.5162 36.7035 23.0254 36.4519L23.2539 35.4714C23.8641 35.723 24.3678 35.9072 25.0221 35.9072C25.9075 35.9072 26.2892 35.6893 26.2892 34.9266C26.2892 34.2937 26.0503 34.1095 24.9909 33.8682V33.8708ZM25.9724 48.6544C23.7992 48.6544 23.0358 47.0176 23.0358 44.9371C23.0358 42.8567 23.8329 41.2743 26.0165 41.2743C26.7695 41.2743 27.3485 41.4377 27.8185 41.6556L27.6757 42.7581C27.0214 42.5506 26.5851 42.4313 25.9724 42.4313C25.1 42.4313 24.5106 42.8463 24.5106 44.6674V45.1265C24.5106 47.0124 25.1 47.5701 26.0061 47.5701C26.6604 47.5701 27.0759 47.3859 27.6653 47.1343L27.9483 48.1823C27.4472 48.421 26.7903 48.6622 25.9724 48.6622V48.6544ZM30.0826 29.6944H31.5885L33.5306 33.4999L34.3277 35.6919L34.0006 33.0744V29.6944H35.2001V36.7943H33.7487L31.7079 32.8462L30.9653 30.719L31.2821 33.2716V36.7943H30.0826V29.6944ZM33.9487 48.5014L32.5725 45.775H31.6015V48.5014H30.215V41.4014H32.6167C34.3096 41.4014 35.2131 42.1329 35.2131 43.6271C35.2131 44.5973 34.7873 45.4482 33.4553 45.6453L34.1979 46.2004L35.4105 48.5014H33.9487ZM42.1119 48.5014H37.768V41.4014H41.9145V42.5143H39.1519V44.3794H41.4991V45.4144H39.1519V47.4197H42.1093V48.4988L42.1119 48.5014ZM41.8938 36.7943L41.5329 35.5518H39.0325L38.6508 36.7943H37.4513L39.7647 29.6944H41.0733L43.3426 36.7943H41.8912H41.8938ZM48.8704 48.5014H44.5266V41.4014H48.6731V42.5143H45.9105V44.3794H48.2577V45.4144H45.9105V47.4197H48.8678V48.4988L48.8704 48.5014ZM47.985 34.4597H46.9698V36.7943H45.5833V29.6944H47.985C49.6649 29.6944 50.5503 30.5556 50.5503 32.0602C50.5503 33.5647 49.6883 34.4597 47.985 34.4597ZM55.0162 48.5014L53.2272 45.2847L52.682 46.1148V48.504H51.2851V41.404H52.682V43.3885L52.4639 44.8827L55.0499 41.404H56.4676L53.9127 44.6544L54.7202 45.277L56.5429 48.504H55.0136L55.0162 48.5014ZM55.2629 34.4597H54.2476V36.7943H52.8611V29.6944H55.2629C56.9428 29.6944 57.8281 30.5556 57.8281 32.0602C57.8281 33.5647 56.9661 34.4597 55.2629 34.4597ZM64.4828 36.7943H60.139V29.6944H64.2855V30.8072H61.5255V32.6724H63.8727V33.7074H61.5255V35.7126H64.4828V36.7917V36.7943ZM70.6312 36.7943L69.2551 34.068H68.284V36.7943H66.8975V29.6944H69.2992C70.9921 29.6944 71.8957 30.4259 71.8957 31.9201C71.8957 32.8903 71.4699 33.7411 70.1379 33.9383L70.8805 34.4934L72.093 36.7943H70.6312Z" fill="black"/>
<path d="M15.0873 69.9258H0.00195312V84.9971H15.0873V69.9258Z" fill="#5EDC3B"/>
<path d="M23.4088 60.2084V53.1086H27.5554V54.2214H24.7928V56.0865H27.1399V57.1215H24.7928V59.1267H27.7501V60.2058H23.4062L23.4088 60.2084ZM30.1674 60.2084V53.1086H31.6733L33.6155 56.914L34.4126 59.106L34.0854 56.4886V53.1086H35.285V60.2084H33.8336L31.7928 56.2603L31.0502 54.1332L31.3669 56.6857V60.2084H30.1674ZM38.1203 60.2084V53.1086H42.2668V54.2214H39.5042V56.0865H41.8514V57.1215H39.5042V59.1267H42.4615V60.2058H38.1177L38.1203 60.2084ZM48.1218 57.3524L48.8644 57.9075L50.0769 60.2084H48.6151L47.239 57.4821H46.2679V60.2084H44.8814V53.1086H47.2831C48.976 53.1086 49.8796 53.8401 49.8796 55.3342C49.8796 56.3044 49.4538 57.1552 48.1218 57.3524ZM46.2653 56.5897H47.2052C48.0776 56.5897 48.4048 56.2733 48.4048 55.4561V55.2383C48.4048 54.3978 48.0543 54.1695 47.1819 54.1695H46.2653V56.5897ZM56.5161 59.5547L55.8384 60.2733C55.6099 60.3174 55.2698 60.3615 54.9764 60.3615C52.8369 60.3615 52.0736 58.8024 52.0736 56.6442C52.0736 54.486 52.9356 52.9814 55.14 52.9814C55.9371 52.9814 56.6018 53.1449 57.0925 53.342L56.9393 54.4549C56.2746 54.2577 55.7605 54.128 55.1062 54.128C54.1793 54.128 53.5354 54.5534 53.5354 56.3744V56.8336C53.5354 58.7739 54.104 59.3187 55.0075 59.3187C55.4541 59.3187 55.7943 59.2305 56.0773 59.0904V57.3446H55.0283V56.4056H57.3314V60.2992H56.9055L56.5135 59.5573L56.5161 59.5547ZM61.4675 60.2084V57.7L59.3176 53.1086H60.7898L61.8933 55.77L62.2308 57.2538L62.5372 55.77L63.607 53.1086H64.8844L62.854 57.6351V60.2084H61.4675Z" fill="white"/>
<path d="M25.1915 36.9475C24.1321 36.9475 23.522 36.7089 23.0312 36.4573L23.2597 35.4767C23.8699 35.7284 24.3736 35.9125 25.0279 35.9125C25.9133 35.9125 26.295 35.6946 26.295 34.932C26.295 34.299 26.0561 34.1149 24.9968 33.8736C23.7634 33.5909 23.0754 33.1421 23.0754 31.692C23.0754 30.3302 23.8829 29.5649 25.3992 29.5649C26.295 29.5649 26.8402 29.718 27.2998 29.9125L27.1362 30.9476C26.5676 30.7738 26.2093 30.6752 25.5109 30.6752C24.68 30.6752 24.3528 30.8931 24.3528 31.5364C24.3528 32.1797 24.5372 32.3431 25.5861 32.5844C26.8532 32.8775 27.6166 33.3159 27.6166 34.7322C27.6166 36.1486 26.8532 36.945 25.1941 36.945L25.1915 36.9475ZM30.0858 36.7945V29.6946H31.5917L33.5339 33.5001L34.331 35.692L34.0038 33.0747V29.6946H35.2034V36.7945H33.752L31.7112 32.8464L30.9686 30.7193L31.2853 33.2718V36.7945H30.0858ZM39.0383 35.552L38.6566 36.7945H37.4571L39.7705 29.6946H41.0791L43.3484 36.7945H41.897L41.5361 35.552H39.0357H39.0383ZM41.2765 34.6363L40.5884 32.3016L40.3365 30.9605L40.0302 32.3016L39.3109 34.6363H41.2765ZM45.5917 36.7945V29.6946H47.9934C49.6733 29.6946 50.5587 30.5559 50.5587 32.0604C50.5587 33.5649 49.6967 34.4599 47.9934 34.4599H46.9782V36.7945H45.5917ZM46.9782 33.5001H47.9181C48.7802 33.5001 49.0865 33.1499 49.0865 32.1927V31.9748C49.0865 31.0487 48.7594 30.753 47.8974 30.753H46.9808V33.5001H46.9782ZM52.8696 36.7945V29.6946H55.2713C56.9512 29.6946 57.8366 30.5559 57.8366 32.0604C57.8366 33.5649 56.9745 34.4599 55.2713 34.4599H54.2561V36.7945H52.8696ZM54.2561 33.5001H55.196C56.058 33.5001 56.3644 33.1499 56.3644 32.1927V31.9748C56.3644 31.0487 56.0372 30.753 55.1752 30.753H54.2587V33.5001H54.2561ZM60.1474 36.7945V29.6946H64.2939V30.8075H61.5339V32.6726H63.8811V33.7076H61.5339V35.7128H64.4912V36.7919H60.1474V36.7945ZM70.1489 33.9385L70.8915 34.4936L72.104 36.7945H70.6422L69.2661 34.0682H68.295V36.7945H66.9085V29.6946H69.3102C71.0031 29.6946 71.9067 30.4262 71.9067 31.9203C71.9067 32.8905 71.4809 33.7413 70.1489 33.9385ZM68.2924 33.1758H69.2323C70.1048 33.1758 70.4319 32.8594 70.4319 32.0422V31.8243C70.4319 30.9839 70.0814 30.7556 69.209 30.7556H68.2924V33.1758ZM25.9782 48.657C23.805 48.657 23.0416 47.0202 23.0416 44.9398C23.0416 42.8593 23.8387 41.277 26.0224 41.277C26.7753 41.277 27.3543 41.4404 27.8243 41.6583L27.6815 42.7608C27.0272 42.5533 26.591 42.4339 25.9782 42.4339C25.1058 42.4339 24.5164 42.849 24.5164 44.67V45.1291C24.5164 47.015 25.1058 47.5727 26.012 47.5727C26.6663 47.5727 27.0817 47.3885 27.6711 47.1369L27.9541 48.1849C27.453 48.4235 26.7961 48.6648 25.9782 48.6648V48.657ZM33.4612 45.6479L34.2037 46.2031L35.4163 48.504H33.9545L32.5784 45.7776H31.6073V48.504H30.2208V41.4041H32.6225C34.3154 41.4041 35.219 42.1356 35.219 43.6298C35.219 44.5999 34.7931 45.4508 33.4612 45.6479ZM31.6047 44.8853H32.5446C33.417 44.8853 33.7442 44.5688 33.7442 43.7517V43.5338C33.7442 42.6933 33.3962 42.4651 32.5212 42.4651H31.6047V44.8853ZM37.7713 48.5066V41.4067H41.9178V42.5195H39.1552V44.3846H41.5023V45.4197H39.1552V47.4248H42.1125V48.504H37.7687L37.7713 48.5066ZM44.5298 48.5066V41.4067H48.6763V42.5195H45.9137V44.3846H48.2609V45.4197H45.9137V47.4248H48.871V48.504H44.5272L44.5298 48.5066ZM52.4671 44.8853L55.0532 41.4067H56.4708L53.9159 44.657L54.7234 45.2796L56.5461 48.5066H55.0168L53.2279 45.29L52.6826 46.12V48.5091H51.2857V41.4093H52.6826V43.3937L52.4645 44.8879L52.4671 44.8853Z" fill="white"/>
</svg>
