<svg width="336" height="155" viewBox="0 0 336 155" fill="none" xmlns="http://www.w3.org/2000/svg">
<rect y="11" width="11" height="11" transform="rotate(-90 0 11)" fill="#E2E2E2"/>
<rect x="37" y="11" width="11" height="11" transform="rotate(-90 37 11)" fill="#E2E2E2"/>
<rect x="74" y="11" width="11" height="10" transform="rotate(-90 74 11)" fill="#E2E2E2"/>
<rect x="110" y="11" width="11" height="10" transform="rotate(-90 110 11)" fill="#E2E2E2"/>
<rect x="146" y="11" width="11" height="11" transform="rotate(-90 146 11)" fill="#E2E2E2"/>
<rect x="183" y="10" width="10" height="10" transform="rotate(-90 183 10)" fill="#E2E2E2"/>
<rect x="219" y="10" width="10" height="11" transform="rotate(-90 219 10)" fill="#E2E2E2"/>
<rect x="256" y="10" width="10" height="10" transform="rotate(-90 256 10)" fill="#E2E2E2"/>
<rect x="292" y="10" width="10" height="10" transform="rotate(-90 292 10)" fill="#E2E2E2"/>
<rect y="47" width="10" height="11" transform="rotate(-90 0 47)" fill="#E2E2E2"/>
<rect x="37" y="47" width="10" height="11" transform="rotate(-90 37 47)" fill="#E2E2E2"/>
<rect x="74" y="47" width="10" height="11" transform="rotate(-90 74 47)" fill="#E2E2E2"/>
<rect x="111" y="47" width="10" height="11" transform="rotate(-90 111 47)" fill="#E2E2E2"/>
<rect x="148" y="47" width="10" height="11" transform="rotate(-90 148 47)" fill="#E2E2E2"/>
<rect x="185" y="47" width="10" height="11" transform="rotate(-90 185 47)" fill="#E2E2E2"/>
<rect x="222" y="47" width="10" height="11" transform="rotate(-90 222 47)" fill="#E2E2E2"/>
<rect x="259" y="47" width="10" height="11" transform="rotate(-90 259 47)" fill="#E2E2E2"/>
<rect x="296" y="47" width="10" height="11" transform="rotate(-90 296 47)" fill="#E2E2E2"/>
<rect y="83" width="10" height="11" transform="rotate(-90 0 83)" fill="#E2E2E2"/>
<rect x="37" y="83" width="10" height="11" transform="rotate(-90 37 83)" fill="#E2E2E2"/>
<rect x="74" y="83" width="10" height="11" transform="rotate(-90 74 83)" fill="#E2E2E2"/>
<rect x="111" y="83" width="10" height="11" transform="rotate(-90 111 83)" fill="#E2E2E2"/>
<rect x="148" y="83" width="10" height="11" transform="rotate(-90 148 83)" fill="#E2E2E2"/>
<rect x="185" y="83" width="10" height="11" transform="rotate(-90 185 83)" fill="#E2E2E2"/>
<rect x="222" y="83" width="10" height="11" transform="rotate(-90 222 83)" fill="#E2E2E2"/>
<rect x="259" y="83" width="10" height="11" transform="rotate(-90 259 83)" fill="#E2E2E2"/>
<rect x="296" y="83" width="10" height="11" transform="rotate(-90 296 83)" fill="#E2E2E2"/>
<rect y="119" width="10" height="11" transform="rotate(-90 0 119)" fill="#E2E2E2"/>
<rect x="37" y="119" width="10" height="11" transform="rotate(-90 37 119)" fill="#E2E2E2"/>
<rect x="74" y="119" width="10" height="11" transform="rotate(-90 74 119)" fill="#E2E2E2"/>
<rect x="111" y="119" width="10" height="11" transform="rotate(-90 111 119)" fill="#E2E2E2"/>
<rect x="148" y="119" width="10" height="11" transform="rotate(-90 148 119)" fill="#E2E2E2"/>
<rect x="185" y="119" width="10" height="11" transform="rotate(-90 185 119)" fill="#E2E2E2"/>
<rect x="222" y="119" width="10" height="11" transform="rotate(-90 222 119)" fill="#E2E2E2"/>
<rect x="259" y="119" width="10" height="11" transform="rotate(-90 259 119)" fill="#E2E2E2"/>
<rect x="296" y="119" width="10" height="11" transform="rotate(-90 296 119)" fill="#E2E2E2"/>
<rect y="155" width="10" height="11" transform="rotate(-90 0 155)" fill="#E2E2E2"/>
<rect x="37" y="155" width="10" height="11" transform="rotate(-90 37 155)" fill="#E2E2E2"/>
<rect x="74" y="155" width="10" height="11" transform="rotate(-90 74 155)" fill="#E2E2E2"/>
<rect x="111" y="155" width="10" height="11" transform="rotate(-90 111 155)" fill="#E2E2E2"/>
<rect x="148" y="155" width="10" height="11" transform="rotate(-90 148 155)" fill="#E2E2E2"/>
<rect x="185" y="155" width="10" height="11" transform="rotate(-90 185 155)" fill="#E2E2E2"/>
<rect x="222" y="155" width="10" height="11" transform="rotate(-90 222 155)" fill="#E2E2E2"/>
<rect x="259" y="155" width="10" height="11" transform="rotate(-90 259 155)" fill="#E2E2E2"/>
<rect x="296" y="155" width="10" height="11" transform="rotate(-90 296 155)" fill="#E2E2E2"/>
</svg>
